:SAMPLES-PER-SECOND 30
:FULLY-SPECIFIED
:DEGREES
1169
root  -10.4233 38.1082 -1.18674 -125.162 -87.2208 142.339
RightUpLeg  -53.059 -9.11736 -3.8342
RightLeg  68.0935 -2.18992 -6.74173
RightFoot  9.04262 0.0295896 0.233492
RightToes  5.82063e-011 0 -3.6325e-017
Spine  71.8103 -8.54878 7.82234
Spine1  3.16199 2.02902 -17.8908
HEad  -44.0053 -3.55236 1.83639
LeftShoulder1  0.156158 -18.4788 8.79893
LeftArm  -64.1034 -66.0266 14.1183
LeftForeArm  70.8613 -26.0993 -2.26055
LeftHand  -0.244104 0.0205437 5.32207
RightShoulder  3.59071 13.9195 13.6813
RightArm  -69.8676 60.9228 -15.2392
RightForeArm  30.5752 24.9338 3.72682
RightHand  -26.2279 39.1011 -61.6605
LeftUpLeg  -44.8334 16.6061 -14.5803
LeftLeg  32.1386 4.85977 3.64042
LeftFoot  -7.64751 -0.124947 5.24694
LeftToes  1.45487e-011 -6.19069e-011 1.65092e-011
1170
root  -11.5546 38.2285 -0.896193 -125.505 -86.696 142.974
RightUpLeg  -54.7804 -9.55978 -3.02345
RightLeg  62.4127 -2.85004 -6.50438
RightFoot  5.02797 -0.198463 1.59778
RightToes  5.82063e-011 0 -3.6325e-017
Spine  71.9347 -8.5564 8.03443
Spine1  2.87361 1.82082 -17.0504
HEad  -44.316 -4.11127 2.16236
LeftShoulder1  0.223502 -19.0524 8.48036
LeftArm  -64.9474 -65.4829 15.2144
LeftForeArm  70.4742 -25.603 -2.17523
LeftHand  -0.244104 0.0205437 5.32207
RightShoulder  3.42019 13.7568 12.8084
RightArm  -70.0654 60.6329 -17.1428
RightForeArm  30.0418 24.468 3.6572
RightHand  -25.6525 38.7488 -60.9358
LeftUpLeg  -43.1978 15.9333 -14.4941
LeftLeg  32.637 5.68734 4.2686
LeftFoot  -9.84453 0.00123961 4.46539
LeftToes  1.45487e-011 -6.19069e-011 1.65092e-011
1171
root  -12.685 38.3113 -0.664733 -124.92 -86.0972 142.682
RightUpLeg  -55.5635 -10.1711 -1.31877
RightLeg  53.3172 -3.69902 -5.68259
RightFoot  2.97094 -0.247794 2.11365
RightToes  5.82063e-011 0 -3.6325e-017
Spine  71.964 -8.57656 8.30514
Spine1  2.929 1.92865 -16.5652
HEad  -44.2512 -4.79021 2.53354
LeftShoulder1  0.331497 -19.6448 7.97524
LeftArm  -65.7153 -65.2174 16.1241
LeftForeArm  70.1845 -25.5853 -2.18057
LeftHand  -0.244104 0.0205437 5.32207
RightShoulder  3.24636 13.4541 12.067
RightArm  -70.649 60.2578 -19.0587
RightForeArm  29.83 24.1423 3.60023
RightHand  -25.1073 38.4146 -60.2384
LeftUpLeg  -41.4924 15.4251 -14.5905
LeftLeg  32.9477 6.53771 4.90134
LeftFoot  -11.7409 0.0855802 4.05991
LeftToes  1.45487e-011 -6.19069e-011 1.65092e-011
1172
root  -13.8387 38.3695 -0.476964 -128.731 -85.5895 146.989
RightUpLeg  -55.4729 -11.4661 1.92592
RightLeg  41.6111 -5.05167 -5.05566
RightFoot  1.15926 -0.329135 3.13724
RightToes  5.82063e-011 0 -3.6325e-017
Spine  71.7625 -8.59942 8.7151
Spine1  2.91384 2.13534 -16.3875
HEad  -43.7425 -5.17586 2.67472
LeftShoulder1  0.378144 -19.9012 7.76677
LeftArm  -65.9314 -65.1495 16.4378
LeftForeArm  69.576 -25.2141 -2.12662
LeftHand  -0.244104 0.0205437 5.32207
RightShoulder  3.01937 12.9801 11.1547
RightArm  -71.634 60.4864 -19.9441
RightForeArm  29.8892 23.5682 3.47111
RightHand  -25.2344 38.5043 -60.387
LeftUpLeg  -39.992 15.4928 -14.5955
LeftLeg  33.1861 7.03398 5.28685
LeftFoot  -13.435 0.148212 3.7337
LeftToes  1.45487e-011 -6.19069e-011 1.65092e-011
1173
root  -15.0619 38.3625 -0.367194 -127.832 -85.1393 146.674
RightUpLeg  -54.6812 -14.9002 7.29654
RightLeg  28.5599 -4.61876 -3.32046
RightFoot  -1.51831 -0.557249 6.37024
RightToes  5.82063e-011 0 -3.6325e-017
Spine  71.3049 -8.57139 8.73567
Spine1  2.8711 2.09588 -16.1148
HEad  -43.3498 -5.4133 2.90429
LeftShoulder1  0.390543 -19.9326 7.70785
LeftArm  -65.7243 -64.9599 16.4842
LeftForeArm  68.7514 -24.5488 -2.02101
LeftHand  -0.244104 0.0205437 5.32207
RightShoulder  2.81261 12.5436 10.2801
RightArm  -72.3241 61.0571 -20.1039
RightForeArm  29.8056 23.1183 3.3654
RightHand  -25.5511 38.6949 -60.7985
LeftUpLeg  -38.6221 15.4672 -14.7097
LeftLeg  33.6856 7.28215 5.55632
LeftFoot  -15.5148 0.199113 2.9193
LeftToes  1.45487e-011 -6.19069e-011 1.65092e-011
1174
root  -16.3572 38.2616 -0.366651 -119.316 -84.6926 138.365
RightUpLeg  -52.6411 -17.992 11.0336
RightLeg  17.0557 -3.87964 0.0423781
RightFoot  -2.55886 -0.675613 8.47185
RightToes  5.82063e-011 0 -3.6325e-017
Spine  70.6898 -8.61931 8.19165
Spine1  3.43871 1.62606 -15.7279
HEad  -43.2959 -5.57586 3.72402
LeftShoulder1  0.358616 -19.1724 7.81006
LeftArm  -65.9157 -65.1245 16.4912
LeftForeArm  68.2175 -24.0272 -1.93271
LeftHand  -0.244104 0.0205437 5.32207
RightShoulder  2.68365 12.2816 9.69616
RightArm  -72.2492 61.6198 -19.6733
RightForeArm  29.7355 23.237 3.39838
RightHand  -25.5486 38.6737 -60.8189
LeftUpLeg  -36.9586 14.8371 -14.9841
LeftLeg  34.7532 7.71361 6.08493
LeftFoot  -17.6578 0.225464 2.15492
LeftToes  1.45487e-011 -6.19069e-011 1.65092e-011
1175
root  -17.6272 38.1422 -0.450575 -113.285 -84.2388 132.04
RightUpLeg  -48.1005 -12.8763 4.01863
RightLeg  11.0724 -13.7907 4.01203
RightFoot  -0.0216684 -0.500091 5.27292
RightToes  5.82063e-011 0 -3.6325e-017
Spine  70.1171 -8.69499 7.73646
Spine1  4.64503 1.10675 -15.8069
HEad  -43.0617 -5.70189 5.05689
LeftShoulder1  0.21363 -17.6808 8.45794
LeftArm  -66.3302 -66.0032 16.0324
LeftForeArm  68.1981 -23.5011 -1.82601
LeftHand  -0.244104 0.0205437 5.32207
RightShoulder  2.67332 12.116 9.82358
RightArm  -71.2479 62.2114 -18.4505
RightForeArm  29.8549 23.6739 3.49825
RightHand  -25.674 38.7477 -60.9808
LeftUpLeg  -35.2535 14.3054 -14.9032
LeftLeg  36.6858 8.12224 6.82061
LeftFoot  -18.8908 0.181399 1.07103
LeftToes  1.45487e-011 -6.19069e-011 1.65092e-011
1176
root  -18.8355 38.0567 -0.549468 -117.79 -84.0816 136.197
RightUpLeg  -47.5508 -12.0615 4.55901
RightLeg  12.3125 -14.2402 4.37454
RightFoot  3.70626 0.231185 -1.57837
RightToes  5.82063e-011 0 -3.6325e-017
Spine  69.9057 -8.47911 7.85028
Spine1  5.24294 1.17084 -16.2152
HEad  -42.2037 -6.00865 5.76528
LeftShoulder1  0.149253 -16.839 8.76883
LeftArm  -65.7067 -66.8851 15.288
LeftForeArm  68.2118 -22.7981 -1.69621
LeftHand  -0.244104 0.0205437 5.32207
RightShoulder  2.70988 12.0283 10.1925
RightArm  -69.4835 62.7179 -16.3886
RightForeArm  29.9684 23.88 3.53835
RightHand  -26.2475 39.1054 -61.6941
LeftUpLeg  -34.8774 14.8527 -13.9399
LeftLeg  40.6074 7.63654 7.33622
LeftFoot  -18.5131 -0.0157326 -2.08712
LeftToes  1.45487e-011 -6.19069e-011 1.65092e-011
1177
root  -20.0161 37.9981 -0.613699 -130.611 -84.3489 148.95
RightUpLeg  -50.074 -17.7 13.052
RightLeg  17.489 -4.47429 2.54102
RightFoot  5.05507 0.97736 -6.6006
RightToes  5.82063e-011 0 -3.6325e-017
Spine  69.9303 -8.15136 8.34782
Spine1  4.85848 1.67906 -16.399
HEad  -41.3953 -6.19884 5.39687
LeftShoulder1  0.255593 -16.7601 8.17026
LeftArm  -65.0444 -67.0644 15.6068
LeftForeArm  67.9108 -22.2665 -1.63019
LeftHand  -0.244104 0.0205437 5.32207
RightShoulder  2.71736 12.2195 10.0108
RightArm  -68.8749 63.0345 -15.0352
RightForeArm  30.08 23.8338 3.52247
RightHand  -26.523 39.2555 -62.0574
LeftUpLeg  -36.8161 16.2193 -12.0213
LeftLeg  47.2586 6.21628 7.58055
LeftFoot  -14.9326 -0.100712 -6.75995
LeftToes  1.45487e-011 -6.19069e-011 1.65092e-011
1178
root  -21.1178 37.9638 -0.686172 -145.299 -85.0306 163.584
RightUpLeg  -52.427 -21.6307 19.9023
RightLeg  22.1772 2.41308 0.642045
RightFoot  3.34647 1.04787 -7.92454
RightToes  5.82063e-011 0 -3.6325e-017
Spine  69.7833 -7.96578 9.02326
Spine1  4.28326 1.99745 -15.7649
HEad  -41.1297 -6.07354 4.90014
LeftShoulder1  0.433906 -17.0031 7.19306
LeftArm  -65.8965 -66.5938 17.1359
LeftForeArm  67.6946 -22.092 -1.60394
LeftHand  -0.244104 0.0205437 5.32207
RightShoulder  2.69845 12.6035 9.41689
RightArm  -70.0085 63.1454 -15.4705
RightForeArm  30.3325 23.9827 3.54122
RightHand  -25.9425 38.8768 -61.3618
LeftUpLeg  -40.4624 17.0058 -9.4375
LeftLeg  55.3195 4.68385 7.75001
LeftFoot  -6.27026 0.402976 -8.90405
LeftToes  1.45487e-011 -6.19069e-011 1.65092e-011
1179
root  -22.1168 37.8618 -0.80937 -160.892 -85.9864 178.884
RightUpLeg  -51.8582 -19.8302 18.8834
RightLeg  26.2577 -0.402869 -0.478891
RightFoot  0.352163 0.877715 -8.54883
RightToes  5.82063e-011 0 -3.6325e-017
Spine  69.549 -7.91115 9.97503
Spine1  4.30216 1.91549 -14.5071
HEad  -40.985 -5.78237 5.31337
LeftShoulder1  0.455799 -17.25 7.10047
LeftArm  -68.131 -66.1504 18.4826
LeftForeArm  67.9751 -21.8443 -1.48691
LeftHand  -0.244104 0.0205437 5.32207
RightShoulder  2.64393 12.6676 8.96581
RightArm  -71.4172 63.2204 -16.5287
RightForeArm  30.7652 24.2513 3.57573
RightHand  -25.3618 38.5311 -60.615
LeftUpLeg  -44.4685 16.295 -6.54094
LeftLeg  62.7191 3.13757 7.1967
LeftFoot  4.32665 0.822553 -6.31101
LeftToes  1.45487e-011 -6.19069e-011 1.65092e-011
1180
root  -23.0693 37.7539 -0.952979 -175.263 -86.6063 -167.015
RightUpLeg  -51.1368 -18.5221 18.1978
RightLeg  29.607 -2.37213 -1.70016
RightFoot  -2.29519 0.734809 -9.43493
RightToes  5.82063e-011 0 -3.6325e-017
Spine  69.6116 -7.8728 10.6558
Spine1  4.31751 1.63537 -13.6746
HEad  -40.4098 -5.32775 6.21627
LeftShoulder1  0.310356 -17.0697 7.88894
LeftArm  -70.0004 -66.2441 19.2956
LeftForeArm  68.0519 -21.244 -1.29581
LeftHand  -0.244104 0.0205437 5.32207
RightShoulder  2.54569 12.4354 8.54508
RightArm  -71.9691 63.3742 -16.6121
RightForeArm  31.0266 23.9524 3.4976
RightHand  -25.7152 38.8006 -60.9982
LeftUpLeg  -47.8118 14.4867 -4.01281
LeftLeg  67.8151 1.75664 5.5443
LeftFoot  9.84553 0.360306 -2.13962
LeftToes  1.45487e-011 -6.19069e-011 1.65092e-011
